HIERARCHY
ROOT SpineBase
{
  OFFSET 0.000000 0.000000 0.000000
  CHANNELS 6 Xposition Yposition Zposition Zrotation Xrotation Yrotation
  JOINT SpineMid
  {
    OFFSET 0.000000 33.894989 0.000000
    CHANNELS 3 Zrotation Xrotation Yrotation
    JOINT SpineShoulder
    {
      OFFSET -0.409690 24.967261 -0.797160
      CHANNELS 3 Zrotation Xrotation Yrotation
      JOINT Neck
      {
        OFFSET -0.111190 8.229894 -0.529388
        CHANNELS 3 Zrotation Xrotation Yrotation
        JOINT Head
        {
          OFFSET -7.012616 -4.557980 -1.027827
          CHANNELS 3 Zrotation Xrotation Yrotation
          End Site
          {
            OFFSET 0 0 0
          }
        }
      }
      JOINT ShoulderLeft
      {
        OFFSET -1.957767 -5.937791 -11.731293
        CHANNELS 3 Zrotation Xrotation Yrotation
        JOINT ElbowLeft
        {
          OFFSET -5.852224 -25.948896 -2.496851
          CHANNELS 3 Zrotation Xrotation Yrotation
          JOINT WristLeft
          {
            OFFSET 10.914093 -22.373529 -0.019413
            CHANNELS 3 Zrotation Xrotation Yrotation
            JOINT HandLeft
            {
              OFFSET 1.222717 -6.347347 2.734949
              CHANNELS 3 Zrotation Xrotation Yrotation
              JOINT HandTipLeft
              {
                OFFSET 5.991428 -6.336330 2.153136
                CHANNELS 3 Zrotation Xrotation Yrotation
                End Site
                {
                  OFFSET 0 0 0
                }
              }
              JOINT ThumbLeft
              {
                OFFSET 4.928790 5.474911 2.421353
                CHANNELS 3 Zrotation Xrotation Yrotation
                End Site
                {
                  OFFSET 0 0 0
                }
              }
            }
          }
        }
      }
      JOINT ShoulderRight
      {
        OFFSET 5.457113 -6.133985 -4.021214
        CHANNELS 3 Zrotation Xrotation Yrotation
        JOINT ElbowRight
        {
          OFFSET -10.456262 -23.179089 -10.083404
          CHANNELS 3 Zrotation Xrotation Yrotation
          JOINT WristRight
          {
            OFFSET -3.946451 -19.367745 -1.098451
            CHANNELS 3 Zrotation Xrotation Yrotation
            JOINT HandRight
            {
              OFFSET -0.149158 -7.408143 1.609778
              CHANNELS 3 Zrotation Xrotation Yrotation
              JOINT HandTipRight
              {
                OFFSET -1.663559 -6.767094 -0.264528
                CHANNELS 3 Zrotation Xrotation Yrotation
                End Site
                {
                  OFFSET 0 0 0
                }
              }
              JOINT ThumbRight
              {
                OFFSET 5.153747 -1.224089 -2.519132
                CHANNELS 3 Zrotation Xrotation Yrotation
                End Site
                {
                  OFFSET 0 0 0
                }
              }
            }
          }
        }
      }
    }
  }
  JOINT HipLeft
  {
    OFFSET -3.498576 1.795854 0.271971
    CHANNELS 3 Zrotation Xrotation Yrotation
    JOINT KneeLeft
    {
      OFFSET 13.086368 -36.915625 9.447341
      CHANNELS 3 Zrotation Xrotation Yrotation
      JOINT AnkleLeft
      {
        OFFSET -1.416931 -29.989986 0.261132
        CHANNELS 3 Zrotation Xrotation Yrotation
        JOINT FootLeft
        {
          OFFSET -2.881338 -8.455378 -9.897172
          CHANNELS 3 Zrotation Xrotation Yrotation
          End Site
          {
            OFFSET 0 0 0
          }
        }
      }
    }
  }
  JOINT HipRight
  {
    OFFSET 4.436548 -0.027245 -7.032229
    CHANNELS 3 Zrotation Xrotation Yrotation
    JOINT KneeRight
    {
      OFFSET 0.082639 -31.234526 1.100267
      CHANNELS 3 Zrotation Xrotation Yrotation
      JOINT AnkleRight
      {
        OFFSET 4.881062 -34.408571 4.848369
        CHANNELS 3 Zrotation Xrotation Yrotation
        JOINT FootRight
        {
          OFFSET 7.284878 -2.990752 -10.651012
          CHANNELS 3 Zrotation Xrotation Yrotation
          End Site
          {
            OFFSET 0 0 0
          }
        }
      }
    }
  }
}
MOTION
Frames: 8
Frame Time: 0.033333
-29.334779 73.819087 344.131068 -0.000000 0.000000 42.629248 -0.000000 -0.000000 -42.629248 -0.000000 0.000000 0.000000 -0.000000 0.000000 0.000000 0.000000 0.000000 0.000000 -0.000000 0.000000 0.000000 -0.000000 0.000000 0.000000 -0.000000 0.000000 0.000000 -0.000000 0.000000 0.000000 0.000000 0.000000 0.000000 0.000000 0.000000 0.000000 -0.000000 0.000000 0.000000 -0.000000 0.000000 0.000000 -0.000000 0.000000 0.000000 -0.000000 0.000000 0.000000 0.000000 0.000000 0.000000 0.000000 0.000000 0.000000 -0.000000 -0.000000 -42.629248 -0.000000 0.000000 0.000000 -0.000000 0.000000 0.000000 0.000000 0.000000 0.000000 -0.000000 -0.000000 -42.629248 -0.000000 0.000000 0.000000 -0.000000 0.000000 0.000000 0.000000 0.000000 0.000000
-29.361188 72.964423 344.504743 0.271121 0.252269 43.034404 -0.370332 0.000631 -43.034999 -0.000000 0.000000 0.000000 1.478435 -0.834519 0.982413 0.000000 0.000000 0.000000 -0.801846 1.082492 -0.159013 0.804990 -1.080156 0.174177 -1.487820 -2.755245 -1.198285 0.694791 2.113347 0.279877 0.000000 0.000000 0.000000 0.000000 0.000000 0.000000 -2.017343 1.781639 0.103748 0.856663 -1.862274 0.003802 3.034409 2.596946 0.231571 4.474884 -2.711487 -0.318160 0.000000 0.000000 0.000000 0.000000 0.000000 0.000000 -0.370332 0.000631 -43.034999 -0.000000 0.000000 0.000000 -1.331360 -0.366392 1.678566 0.000000 0.000000 0.000000 -0.370332 0.000631 -43.034999 -0.052101 0.937718 0.126263 0.260317 -1.186712 -1.481632 0.000000 0.000000 0.000000
-29.318860 72.235957 344.844195 0.580717 0.508144 42.248607 -0.046474 0.694067 -42.236766 0.184740 0.024160 0.013471 2.681344 -2.311272 1.442307 0.000000 0.000000 0.000000 -1.597481 0.991848 -0.356001 1.345632 -1.997975 0.346123 -2.729617 -4.852967 -2.197153 1.051933 3.799758 0.513410 0.000000 0.000000 0.000000 0.000000 0.000000 0.000000 -4.071149 2.392599 0.129535 1.806845 -3.463942 0.000699 5.579425 4.750655 0.412096 7.381570 -5.008042 -0.276075 0.000000 0.000000 0.000000 0.000000 0.000000 0.000000 -0.771511 0.014317 -42.251086 0.211117 -0.909591 0.046491 -2.682144 0.437077 3.032254 0.000000 0.000000 0.000000 -0.430282 -1.001923 -42.216566 -1.017521 2.348982 0.222669 0.464952 -2.257770 -2.687405 0.000000 0.000000 0.000000
-29.207796 71.633690 345.149424 0.929568 0.769306 40.015579 -0.137705 0.949702 -40.000744 0.202412 0.049624 0.018851 4.026941 -2.892441 1.407632 0.000000 0.000000 0.000000 -1.996339 1.296169 -0.519991 2.308761 -2.312631 0.738832 -4.486485 -6.812198 -3.243868 1.126991 5.142362 0.742811 0.000000 0.000000 0.000000 0.000000 0.000000 0.000000 -5.780334 3.413860 0.173032 2.732193 -4.820102 0.010535 7.706145 6.412774 0.561481 8.932649 -6.801557 -0.133391 0.000000 0.000000 0.000000 0.000000 0.000000 0.000000 -1.206566 0.008589 -40.021729 0.345006 -1.344586 0.070586 -3.718753 1.080294 4.019666 0.000000 0.000000 0.000000 -0.755463 -0.996158 -39.984186 -1.080763 3.139271 0.339075 0.615527 -3.203836 -3.608188 0.000000 0.000000 0.000000
-29.027994 71.157622 345.420431 1.318965 1.037420 36.026913 -0.301015 1.134499 -36.010431 0.172040 0.082416 0.022531 5.438472 -3.136540 0.863691 0.000000 0.000000 0.000000 -2.116589 1.450503 -0.672099 2.391818 -2.778393 0.927238 -5.440370 -7.986322 -3.936207 0.954771 6.204012 0.995263 0.000000 0.000000 0.000000 0.000000 0.000000 0.000000 -7.267121 4.314475 0.192775 3.566722 -5.935200 0.037739 9.441956 7.535059 0.704080 9.323519 -8.048339 -0.068042 0.000000 0.000000 0.000000 0.000000 0.000000 0.000000 -2.428639 -0.721438 -36.446293 0.723618 -0.786581 0.486503 -4.495985 2.064590 4.565338 0.000000 0.000000 0.000000 -1.676827 -0.063035 -36.039778 -0.075042 3.434473 0.481097 0.713157 -4.017161 -4.238234 0.000000 0.000000 0.000000
-28.779456 70.807754 345.657216 1.750714 1.314171 29.970835 -0.547970 1.226118 -29.953878 0.094348 0.121680 0.024071 6.976915 -3.054825 -0.237637 0.000000 0.000000 0.000000 -1.957512 1.443893 -0.808830 2.116880 -3.080862 1.067645 -6.147547 -8.727610 -4.445086 0.554121 7.029370 1.288077 0.000000 0.000000 0.000000 0.000000 0.000000 0.000000 -8.531220 5.094259 0.182766 4.271565 -6.806710 0.079688 10.796059 8.074601 0.864273 8.693729 -8.717635 -0.181284 0.000000 0.000000 0.000000 0.000000 0.000000 0.000000 -3.289840 -1.374148 -30.654815 1.087886 -0.642331 0.740954 -4.977172 3.406224 4.621195 0.000000 0.000000 0.000000 -2.173058 -0.263361 -29.995910 -0.034453 4.147245 0.587981 0.758270 -4.691530 -4.574827 0.000000 0.000000 0.000000
-28.371768 70.251038 345.782766 2.357276 1.833818 17.955960 -0.917160 1.195627 -17.941814 -0.067337 0.194556 0.023335 7.414048 -2.704299 -2.161278 0.000000 0.000000 0.000000 -1.253438 0.765691 -0.936199 0.260485 -3.642512 0.807859 -5.842399 -7.276921 -4.218999 -1.052688 7.391767 2.222997 0.000000 0.000000 0.000000 0.000000 0.000000 0.000000 -9.552274 5.424062 0.023918 4.753321 -7.771192 0.230743 12.345443 8.872045 0.971334 7.104230 -9.752180 -0.328635 0.000000 0.000000 0.000000 0.000000 0.000000 0.000000 -3.956847 -3.304498 -19.052902 1.231227 -0.074130 1.095801 -5.969250 5.226575 5.133702 0.000000 0.000000 0.000000 -3.395824 0.350337 -18.053652 1.085495 4.180839 0.810514 0.688162 -5.613687 -4.497006 0.000000 0.000000 0.000000
-27.861130 70.475476 346.083191 3.090275 2.085512 10.319402 -1.288575 1.161824 -10.313332 -0.285882 0.282046 0.018296 8.565770 -0.401110 -7.475508 0.000000 0.000000 0.000000 0.311266 0.183837 -1.062615 -1.580492 -3.489422 0.890973 -6.181989 -7.944431 -4.537817 -1.206890 7.755334 2.100001 0.000000 0.000000 0.000000 0.000000 0.000000 0.000000 -10.100087 5.557941 -0.132987 4.669985 -7.701368 0.233452 13.021979 7.955573 1.265529 3.968626 -9.297241 -0.876364 0.000000 0.000000 0.000000 0.000000 0.000000 0.000000 -4.774178 -4.103365 -11.699590 1.876109 -0.124636 1.317217 -4.773765 7.044847 3.062572 0.000000 0.000000 0.000000 -5.493657 0.793083 -10.514696 2.630095 3.951441 0.976671 0.577866 -5.760227 -3.555502 0.000000 0.000000 0.000000
